HIERARCHY
ROOT Hips
{
	OFFSET 51.186401 -8.358575 95.611000
	CHANNELS 6 Xposition Yposition Zposition Xrotation Yrotation Zrotation
	JOINT spine
	{
		OFFSET 0.000000 -0.458069 7.965683
		CHANNELS 3 Xrotation Yrotation Zrotation
		JOINT spine1
		{
			OFFSET 0.000000 -0.000001 10.243103
			CHANNELS 3 Xrotation Yrotation Zrotation
			JOINT spine2
			{
				OFFSET 0.000000 -0.000002 9.814751
				CHANNELS 3 Xrotation Yrotation Zrotation
				JOINT Neck
				{
					OFFSET 0.000000 -1.201384 25.198593
					CHANNELS 3 Xrotation Yrotation Zrotation
					JOINT Head
					{
						OFFSET 0.000000 -0.000002 7.613144
						CHANNELS 3 Xrotation Yrotation Zrotation
						End Site
						{
							OFFSET 0.000000 6.077328 18.428101
						}
					}
				}
				JOINT RightShoulder
				{
					OFFSET -4.132698 0.575449 10.599197
					CHANNELS 3 Xrotation Yrotation Zrotation
					JOINT RightArm
					{
						OFFSET 0.000000 -0.000002 13.901794
						CHANNELS 3 Xrotation Yrotation Zrotation
						JOINT RightArmRoll
						{
							OFFSET 0.000000 -0.000002 7.017883
							CHANNELS 3 Xrotation Yrotation Zrotation
							JOINT RightForeArm
							{
								OFFSET 0.000000 -0.000003 20.440598
								CHANNELS 3 Xrotation Yrotation Zrotation
								JOINT RightForeArmRoll
								{
									OFFSET 0.000000 -0.000001 7.875168
									CHANNELS 3 Xrotation Yrotation Zrotation
									JOINT RightHand
									{
										OFFSET 0.000000 -0.000003 15.803696
										CHANNELS 3 Xrotation Yrotation Zrotation
										End Site
										{
											OFFSET 0.000000 0.000000 0.100006
										}
									}
								}
							}
						}
					}
				}
				JOINT LeftShoulder
				{
					OFFSET 4.132698 0.575449 10.599197
					CHANNELS 3 Xrotation Yrotation Zrotation
					JOINT LeftArm
					{
						OFFSET 0.000000 -0.000002 13.901794
						CHANNELS 3 Xrotation Yrotation Zrotation
						JOINT LeftArmRoll
						{
							OFFSET 0.000000 -0.000002 7.017883
							CHANNELS 3 Xrotation Yrotation Zrotation
							JOINT LeftForeArm
							{
								OFFSET 0.000000 -0.000003 20.440598
								CHANNELS 3 Xrotation Yrotation Zrotation
								JOINT LeftForeArmRoll
								{
									OFFSET 0.000000 -0.000001 7.875168
									CHANNELS 3 Xrotation Yrotation Zrotation
									JOINT LeftHand
									{
										OFFSET 0.000000 -0.000003 15.803696
										CHANNELS 3 Xrotation Yrotation Zrotation
										End Site
										{
											OFFSET 0.000000 0.000000 0.100006
										}
									}
								}
							}
						}
					}
				}
			}
		}
	}
	JOINT RightUpLeg
	{
		OFFSET -7.060478 1.086100 -1.294701
		CHANNELS 3 Xrotation Yrotation Zrotation
		JOINT RightUpLegRoll
		{
			OFFSET 0.000000 -0.000003 18.530800
			CHANNELS 3 Xrotation Yrotation Zrotation
			JOINT RightLeg
			{
				OFFSET 0.000000 0.000004 -22.947601
				CHANNELS 3 Xrotation Yrotation Zrotation
				JOINT RightLegRoll
				{
					OFFSET 0.000000 -0.000004 23.022598
					CHANNELS 3 Xrotation Yrotation Zrotation
					JOINT RightFoot
					{
						OFFSET 0.000000 -0.000003 19.162498
						CHANNELS 3 Xrotation Yrotation Zrotation
						JOINT RightToeBase
						{
							OFFSET 0.000000 -0.000003 16.018799
							CHANNELS 3 Xrotation Yrotation Zrotation
							End Site
							{
								OFFSET 0.006790 0.894205 7.757812
							}
						}
					}
				}
			}
		}
	}
	JOINT LeftUpLeg
	{
		OFFSET 7.060478 1.086100 -1.294701
		CHANNELS 3 Xrotation Yrotation Zrotation
		JOINT LeftUpLegRoll
		{
			OFFSET 0.000000 -0.000003 18.530899
			CHANNELS 3 Xrotation Yrotation Zrotation
			JOINT LeftLeg
			{
				OFFSET 0.000000 -0.000003 22.947495
				CHANNELS 3 Xrotation Yrotation Zrotation
				JOINT LeftLegRoll
				{
					OFFSET 0.000000 -0.000004 23.235504
					CHANNELS 3 Xrotation Yrotation Zrotation
					JOINT LeftFoot
					{
						OFFSET 0.000000 -0.000003 18.949600
						CHANNELS 3 Xrotation Yrotation Zrotation
						JOINT LeftToeBase
						{
							OFFSET 0.000000 -0.000002 16.018799
							CHANNELS 3 Xrotation Yrotation Zrotation
							End Site
							{
								OFFSET -0.030430 0.894206 7.757812
							}
						}
					}
				}
			}
		}
	}
}
MOTION
Frames: 12
Frame Time: 0.041667
50.519695 -7.123608 95.723389 -5.574564 0.523943 5.882437 -1.802440 -0.069224 0.065112 0.398002 -0.135323 0.130183 2.043075 -0.133755 0.131710 31.327492 0.998421 -3.051063 -4.470954 -5.668420 -2.571152 2.976129 -61.100188 3.148325 -71.534525 -149.887736 -95.326143 0.000001 -0.000001 -0.000003 96.885359 3.383527 -7.545613 0.000003 0.000005 -3.001021 -5.000161 -7.999868 0.000039 -3.972937 57.544405 4.555374 -72.771205 159.168966 109.205053 -0.000001 -0.000003 0.000010 93.880513 -0.997560 7.700792 0.000001 -0.000014 3.000001 -5.000146 8.000010 0.000009 5.050158 -177.373237 -2.066943 -179.999991 0.000006 -1.210004 175.083116 -2.636273 -0.624714 -0.000005 -0.000003 0.055946 68.801670 6.957032 1.971316 25.456883 -7.352836 -0.000006 0.341233 171.776143 -0.708338 -0.000004 -0.000004 -1.068661 -8.071626 1.489849 0.503680 -0.000001 -0.000001 0.026931 68.879794 -6.133017 -4.089899 25.456953 7.355613 -0.000000 
50.510197 -7.132175 95.722900 -5.581621 0.521100 5.879835 -1.800712 -0.069145 0.065874 0.401462 -0.134614 0.131482 2.046536 -0.133029 0.132991 31.315417 0.981546 -3.049680 -4.440936 -5.633315 -2.573176 2.924766 -61.104710 3.088365 -71.681811 -149.843094 -95.376318 0.000001 -0.000002 0.000006 96.869356 3.380920 -7.531979 0.000001 0.000008 -3.001011 -5.000164 -7.999867 0.000038 -3.961907 57.492994 4.537150 -72.860640 159.116101 109.199418 0.000002 -0.000002 0.000009 93.849859 -0.996282 7.685484 0.000000 -0.000013 3.000001 -5.000144 8.000014 0.000009 5.049105 -177.368237 -2.062711 -179.999991 0.000006 -1.211002 175.071750 -2.637221 -0.625322 -0.000005 -0.000003 0.055976 68.803665 6.957009 1.971385 25.456883 -7.352836 -0.000006 0.346432 171.780146 -0.708136 -0.000004 -0.000004 -1.068651 -8.076904 1.491167 0.503749 -0.000001 -0.000001 0.027002 68.884398 -6.133419 -4.087518 25.456953 7.355614 -0.000001 
50.517395 -7.127909 95.724396 -5.588117 0.518324 5.876622 -1.799031 -0.069083 0.066562 0.404817 -0.133985 0.132615 2.049895 -0.132384 0.134106 31.302555 0.966307 -3.048384 -4.410963 -5.598554 -2.575048 2.872920 -61.108623 3.027905 -71.831488 -149.797824 -95.422066 0.000000 -0.000003 0.000002 96.855163 3.379122 -7.517445 0.000002 0.000010 -3.001012 -5.000164 -7.999870 0.000039 -3.952545 57.442738 4.521014 -72.955545 159.057552 109.193934 0.000001 -0.000004 0.000011 93.823303 -0.996684 7.670264 0.000001 -0.000012 3.000001 -5.000146 8.000012 0.000009 5.047185 -177.363251 -2.058590 -179.999991 0.000005 -1.211001 175.060112 -2.637176 -0.624862 -0.000005 -0.000003 0.056008 68.805564 6.957015 1.971368 25.456882 -7.352836 -0.000007 0.351197 171.785145 -0.707791 -0.000005 -0.000003 -1.068651 -8.082060 1.492504 0.503806 -0.000001 -0.000001 0.027066 68.888817 -6.133910 -4.085066 25.456957 7.355614 -0.000002 
50.524696 -7.120631 95.724411 -5.594003 0.515628 5.872773 -1.797410 -0.069023 0.067141 0.408067 -0.133418 0.133539 2.053144 -0.131804 0.135013 31.288916 0.952807 -3.047036 -4.381167 -5.564355 -2.576627 2.820167 -61.112038 2.966477 -71.984081 -149.751597 -95.463846 0.000004 -0.000002 0.000003 96.843067 3.378537 -7.501057 0.000001 0.000007 -3.001011 -5.000164 -7.999867 0.000040 -3.945393 57.393916 4.507649 -73.056345 158.993116 109.188634 0.000002 -0.000002 0.000009 93.801358 -0.998759 7.657139 -0.000001 -0.000010 3.000000 -5.000143 8.000008 0.000008 5.044392 -177.358265 -2.054619 -179.999991 0.000006 -1.211001 175.048200 -2.637128 -0.625409 -0.000005 -0.000003 0.056037 68.807353 6.957015 1.971354 25.456883 -7.352836 -0.000006 0.355578 171.789161 -0.707329 -0.000004 -0.000005 -1.068650 -8.086897 1.493862 0.503851 -0.000001 -0.000001 0.027128 68.893024 -6.134420 -4.082626 25.456948 7.355612 -0.000000 
50.525997 -7.120830 95.724602 -5.599225 0.513029 5.868235 -1.795832 -0.068949 0.067583 0.411215 -0.132897 0.134209 2.056285 -0.131272 0.135670 31.274296 0.941176 -3.045520 -4.351662 -5.530899 -2.577735 2.766043 -61.114559 2.903573 -72.139065 -149.704742 -95.499917 -0.000000 -0.000002 -0.000000 96.833320 3.379083 -7.484806 0.000002 0.000009 -3.001009 -5.000162 -7.999874 0.000037 -3.940943 57.346705 4.497657 -73.163648 158.922697 109.183791 0.000000 -0.000002 0.000008 93.784583 -1.002759 7.646140 -0.000001 -0.000015 3.000001 -5.000144 8.000006 0.000009 5.040708 -177.353266 -2.050790 -179.999991 0.000005 -1.211001 175.036138 -2.637079 -0.625963 -0.000005 -0.000003 0.056068 68.809054 6.957044 1.971354 25.456883 -7.352836 -0.000007 0.359627 171.793150 -0.706763 -0.000005 -0.000004 -1.068670 -8.091232 1.495262 0.503881 -0.000000 -0.000001 0.027180 68.896945 -6.135007 -4.080121 25.456953 7.355613 -0.000001 
50.530197 -7.114577 95.723099 -5.603742 0.510542 5.862952 -1.794315 -0.068844 0.067858 0.414263 -0.132404 0.134584 2.059335 -0.130770 0.136033 31.258596 0.931518 -3.043726 -4.322576 -5.498391 -2.578241 2.710087 -61.116082 2.838693 -72.296487 -149.657381 -95.529703 0.000001 -0.000004 -0.000000 96.826592 3.380934 -7.466712 0.000001 0.000009 -3.001007 -5.000162 -7.999872 0.000040 -3.939733 57.301401 4.491718 -73.277855 158.846049 109.179631 0.000001 -0.000002 0.000009 93.773696 -1.008687 7.637228 0.000001 -0.000011 3.000001 -5.000147 8.000014 0.000009 5.036111 -177.348252 -2.047153 -179.999991 0.000005 -1.211002 175.023966 -2.637031 -0.626524 -0.000005 -0.000003 0.056098 68.810638 6.957030 1.971350 25.456885 -7.352837 -0.000007 0.363397 171.797166 -0.706111 -0.000004 -0.000004 -1.068690 -8.094870 1.496714 0.503898 -0.000001 -0.000001 0.027228 68.900271 -6.135681 -4.077661 25.456952 7.355614 0.000001 
50.532196 -7.112471 95.720787 -5.607493 0.508182 5.856894 -1.792830 -0.068693 0.067933 0.417216 -0.131920 0.134619 2.062294 -0.130281 0.136059 31.241917 0.923944 -3.041512 -4.294040 -5.467033 -2.577977 2.651816 -61.116246 2.771306 -72.455692 -149.609679 -95.551341 0.000002 -0.000002 0.000001 96.822856 3.384412 -7.447811 0.000001 0.000004 -3.001009 -5.000164 -7.999872 0.000038 -3.942306 57.258176 4.490472 -73.399877 158.762789 109.177227 0.000001 -0.000002 0.000010 93.768956 -1.016719 7.631455 0.000004 -0.000010 3.000000 -5.000144 8.000010 0.000010 5.030602 -177.343253 -2.043720 -179.999991 0.000005 -1.211003 175.011740 -2.636983 -0.627086 -0.000005 -0.000003 0.056129 68.812100 6.957010 1.971355 25.456882 -7.352836 -0.000007 0.366946 171.802166 -0.705381 -0.000004 -0.000004 -1.068720 -8.097618 1.498218 0.503894 -0.000001 -0.000002 0.027267 68.903058 -6.136346 -4.075532 25.456953 7.355615 -0.000002 
50.541199 -7.120260 95.723297 -5.610427 0.505965 5.850013 -1.791401 -0.068479 0.067777 0.420078 -0.131432 0.134269 2.065155 -0.129790 0.135702 31.223964 0.918586 -3.038779 -4.266163 -5.437034 -2.576789 2.590821 -61.115023 2.700969 -72.617881 -149.561144 -95.566497 0.000001 -0.000002 0.000001 96.822713 3.389679 -7.426121 0.000001 0.000008 -3.000999 -5.000165 -7.999868 0.000038 -3.949179 57.217318 4.494571 -73.530306 158.672808 109.176804 0.000003 -0.000001 0.000010 93.771271 -1.026934 7.627808 0.000002 -0.000013 3.000000 -5.000146 8.000011 0.000009 5.024153 -177.338253 -2.040512 -179.999991 0.000005 -1.211999 174.999555 -2.635940 -0.627559 -0.000005 -0.000003 0.056159 68.813282 6.957044 1.971386 25.456885 -7.352838 -0.000006 0.370316 171.806169 -0.704607 -0.000005 -0.000004 -1.068771 -8.099272 1.499806 0.503875 -0.000001 -0.000001 0.027299 68.905038 -6.137079 -4.073559 25.456948 7.355616 -0.000002 
50.544395 -7.116359 95.723091 -5.612624 0.503899 5.842159 -1.790030 -0.068225 0.067375 0.422822 -0.130995 0.133483 2.067895 -0.129353 0.134910 31.204542 0.916542 -3.035605 -4.238003 -5.408309 -2.574586 2.529280 -61.113077 2.630107 -72.782523 -149.511051 -95.574216 -0.000001 -0.000004 0.000001 96.825506 3.396683 -7.405630 -0.000001 0.000008 -3.001000 -5.000162 -7.999870 0.000037 -3.959508 57.179157 4.503041 -73.668576 158.574740 109.177890 0.000001 -0.000001 0.000009 93.780724 -1.039374 7.628299 0.000001 -0.000014 2.999999 -5.000146 8.000006 0.000007 5.016532 -177.333240 -2.037579 -179.999991 0.000005 -1.211999 174.986933 -2.635890 -0.628140 -0.000005 -0.000003 0.056189 68.814545 6.957047 1.971309 25.456883 -7.352837 -0.000007 0.373498 171.810171 -0.703795 -0.000005 -0.000004 -1.068831 -8.100029 1.501487 0.503834 -0.000001 -0.000001 0.027324 68.906521 -6.137913 -4.071530 25.456950 7.355615 -0.000001 
50.540195 -7.119209 95.720901 -5.614164 0.501973 5.833274 -1.788721 -0.067968 0.066753 0.425428 -0.130673 0.132270 2.070505 -0.129034 0.133695 31.183447 0.918500 -3.032200 -4.208649 -5.380598 -2.571476 2.469340 -61.111089 2.561106 -72.950976 -149.458035 -95.577952 -0.000000 -0.000004 -0.000000 96.830130 3.405620 -7.383296 0.000002 0.000009 -3.001000 -5.000163 -7.999869 0.000039 -3.972054 57.143931 4.514418 -73.814360 158.467342 109.181407 -0.000000 -0.000000 0.000010 93.797253 -1.053952 7.632940 0.000003 -0.000009 3.000001 -5.000144 8.000004 0.000008 5.007551 -177.329223 -2.035049 -179.999991 0.000005 -1.211999 174.973464 -2.634842 -0.628673 -0.000005 -0.000003 0.056219 68.815816 6.957051 1.971329 25.456882 -7.352837 -0.000006 0.376411 171.815171 -0.702931 -0.000004 -0.000004 -1.068910 -8.100218 1.503267 0.503769 -0.000001 -0.000001 0.027344 68.907538 -6.138913 -4.069562 25.456953 7.355616 -0.000001 
50.545597 -7.116211 95.719391 -5.615072 0.500173 5.823444 -1.787481 -0.067709 0.065938 0.427909 -0.130456 0.130684 2.072985 -0.128821 0.132111 31.160809 0.923931 -3.028607 -4.178431 -5.353764 -2.567625 2.410461 -61.109047 2.493359 -73.121683 -149.403121 -95.575185 -0.000001 -0.000002 -0.000003 96.836646 3.416105 -7.361113 0.000001 0.000007 -3.001001 -5.000163 -7.999868 0.000039 -3.986745 57.111033 4.528596 -73.966769 158.351666 109.185676 0.000002 -0.000003 0.000010 93.820230 -1.070577 7.639716 0.000002 -0.000013 2.999999 -5.000144 8.000008 0.000010 4.997333 -177.324196 -2.032701 -179.999991 0.000005 -1.211998 174.959257 -2.634783 -0.629325 -0.000005 -0.000003 0.056249 68.817277 6.957031 1.971333 25.456882 -7.352836 -0.000006 0.379027 171.819173 -0.702012 -0.000004 -0.000004 -1.069001 -8.099903 1.505141 0.503683 -0.000001 -0.000001 0.027359 68.908378 -6.140073 -4.067234 25.456955 7.355613 0.000001 
50.550797 -7.111893 95.720802 -5.615350 0.498484 5.812761 -1.786311 -0.067453 0.064960 0.430265 -0.130333 0.128780 2.075345 -0.128705 0.130209 31.136882 0.932306 -3.024879 -4.147641 -5.327691 -2.563175 2.352105 -61.106670 2.426254 -73.295860 -149.345843 -95.568663 -0.000002 -0.000003 0.000003 96.845129 3.428058 -7.337082 -0.000001 0.000009 -3.001000 -5.000163 -7.999867 0.000039 -4.003538 57.080372 4.545475 -74.125810 158.228231 109.191229 0.000003 -0.000001 0.000009 93.848869 -1.089171 7.648600 0.000003 -0.000013 3.000000 -5.000144 8.000010 0.000009 4.985974 -177.320167 -2.030663 -179.999991 0.000005 -1.211998 174.944477 -2.633731 -0.630914 -0.000005 -0.000003 0.056278 68.818759 6.957047 1.971242 25.456882 -7.352837 -0.000006 0.381310 171.824173 -0.701003 -0.000005 -0.000004 -1.069111 -8.099172 1.507075 0.503582 -0.000001 -0.000001 0.027370 68.908836 -6.141344 -4.064941 25.456952 7.355612 -0.000000 
